<svg width="448" height="95" viewBox="0 0 448 95" fill="none" xmlns="http://www.w3.org/2000/svg">
<path d="M297.489 24.8166C297.489 20.0638 301.342 16.2109 306.095 16.2109V16.2109C310.848 16.2109 314.701 20.0638 314.701 24.8166V24.8166C314.701 29.5694 310.848 33.4223 306.095 33.4223V33.4223C301.342 33.4223 297.489 29.5694 297.489 24.8166V24.8166Z" fill="#00BCA5"/>
<path d="M6.41047 95.0002C3.8567 95.0002 1.71988 94.6745 0 94.023V86.1663C2.18894 86.7135 4.09123 86.9871 5.70688 86.9871C10.8144 86.9871 13.3682 83.7558 13.3682 77.2933V21.9052H22.7493V76.9805C22.7493 82.8177 21.3552 87.2738 18.5669 90.3487C15.8047 93.4497 11.7525 95.0002 6.41047 95.0002Z" fill="#004B6B"/>
<path d="M63.6356 79.0522L61.7985 73.0326H61.4858C59.4011 75.6646 57.3033 77.4626 55.1926 78.4268C53.0818 79.3649 50.3717 79.834 47.0622 79.834C42.8146 79.834 39.4921 78.6874 37.0947 76.3942C34.7234 74.101 33.5377 70.8567 33.5377 66.6613C33.5377 62.2052 35.1924 58.8436 38.5019 56.5765C41.8114 54.3094 46.8537 53.0716 53.629 52.8631L61.0949 52.6286V50.3224C61.0949 47.5601 60.4434 45.5015 59.1405 44.1464C57.8636 42.7653 55.8701 42.0748 53.16 42.0748C50.945 42.0748 48.8212 42.4005 46.7886 43.052C44.756 43.7034 42.8016 44.4722 40.9254 45.3582L37.9547 38.7914C40.2999 37.5666 42.8667 36.6415 45.655 36.0161C48.4433 35.3646 51.0753 35.0389 53.5509 35.0389C59.0493 35.0389 63.1926 36.2376 65.9809 38.635C68.7953 41.0324 70.2024 44.7979 70.2024 49.9315V79.0522H63.6356ZM49.9547 72.7981C53.2903 72.7981 55.9613 71.873 57.9678 70.0228C60.0004 68.1466 61.0167 65.5277 61.0167 62.1661V58.4136L55.4662 58.6482C51.1404 58.8045 47.9873 59.5342 46.0068 60.8371C44.0524 62.114 43.0752 64.0814 43.0752 66.7394C43.0752 68.6678 43.6485 70.1662 44.7951 71.2346C45.9417 72.2769 47.6616 72.7981 49.9547 72.7981Z" fill="#004B6B"/>
<path d="M91.8964 56.2247L97.0951 49.7361L110.151 35.8207H120.743L103.349 54.3876L121.838 79.0522H111.05L97.1733 60.0944L92.1309 64.2378V79.0522H83.0234V18.231H92.1309V47.8989L91.6619 56.2247H91.8964Z" fill="#004B6B"/>
<path d="M129.812 21.9052H146.776C154.646 21.9052 160.327 23.0518 163.819 25.345C167.337 27.6382 169.096 31.2604 169.096 36.2115C169.096 39.5471 168.236 42.3223 166.516 44.5373C164.796 46.7523 162.32 48.1465 159.089 48.7198V49.1106C163.102 49.8664 166.047 51.3647 167.923 53.6058C169.825 55.8208 170.776 58.8306 170.776 62.6352C170.776 67.7688 168.978 71.7948 165.382 74.7134C161.812 77.606 156.835 79.0522 150.451 79.0522H129.812V21.9052ZM139.154 45.5145H148.144C152.053 45.5145 154.907 44.9022 156.705 43.6774C158.503 42.4266 159.402 40.3158 159.402 37.3451C159.402 34.661 158.425 32.7197 156.47 31.521C154.542 30.3222 151.467 29.7229 147.245 29.7229H139.154V45.5145ZM139.154 53.0976V71.1955H149.082C152.991 71.1955 155.936 70.4528 157.916 68.9675C159.923 67.4561 160.926 65.0847 160.926 61.8534C160.926 58.8827 159.91 56.6807 157.877 55.2475C155.845 53.8143 152.757 53.0976 148.613 53.0976H139.154Z" fill="#004B6B"/>
<path d="M200.562 79.834C193.838 79.834 188.575 77.8796 184.77 73.9708C180.991 70.0359 179.102 64.6287 179.102 57.7491C179.102 50.6872 180.861 45.1367 184.379 41.0976C187.897 37.0584 192.731 35.0389 198.881 35.0389C204.588 35.0389 209.096 36.7718 212.405 40.2376C215.715 43.7034 217.37 48.4722 217.37 54.5439V59.5081H188.562C188.692 63.7036 189.825 66.9349 191.962 69.202C194.099 71.443 197.109 72.5636 200.992 72.5636C203.545 72.5636 205.917 72.329 208.106 71.86C210.321 71.3649 212.692 70.557 215.22 69.4365V76.9024C212.979 77.9708 210.712 78.7265 208.418 79.1695C206.125 79.6125 203.506 79.834 200.562 79.834ZM198.881 41.9966C195.962 41.9966 193.617 42.9217 191.845 44.7719C190.099 46.622 189.057 49.3191 188.718 52.8631H208.34C208.288 49.2931 207.428 46.596 205.76 44.7719C204.093 42.9217 201.799 41.9966 198.881 41.9966Z" fill="#004B6B"/>
<path d="M249.735 35.0389C251.585 35.0389 253.109 35.1692 254.308 35.4298L253.409 43.9901C252.106 43.6774 250.751 43.521 249.344 43.521C245.669 43.521 242.686 44.7197 240.393 47.1171C238.125 49.5146 236.992 52.6286 236.992 56.4592V79.0522H227.806V35.8207H234.998L236.21 43.4429H236.679C238.112 40.863 239.976 38.8174 242.269 37.306C244.588 35.7946 247.077 35.0389 249.735 35.0389Z" fill="#004B6B"/>
<path d="M291.403 66.7394C291.403 70.961 289.865 74.2053 286.79 76.4724C283.715 78.7135 279.311 79.834 273.578 79.834C267.819 79.834 263.194 78.961 259.702 77.2151V69.2802C264.784 71.6255 269.513 72.7981 273.891 72.7981C279.546 72.7981 282.373 71.0913 282.373 67.6776C282.373 66.5831 282.061 65.671 281.435 64.9414C280.81 64.2117 279.78 63.456 278.347 62.6743C276.914 61.8925 274.92 61.0065 272.367 60.0163C267.389 58.0879 264.015 56.1596 262.243 54.2312C260.497 52.3029 259.624 49.8012 259.624 46.7263C259.624 43.0259 261.109 40.1594 264.08 38.1269C267.077 36.0682 271.142 35.0389 276.275 35.0389C281.357 35.0389 286.165 36.0682 290.699 38.1269L287.728 45.0455C283.064 43.1171 279.142 42.1529 275.963 42.1529C271.116 42.1529 268.692 43.5341 268.692 46.2963C268.692 47.6514 269.318 48.7979 270.569 49.7361C271.845 50.6742 274.608 51.9641 278.855 53.6058C282.425 54.9869 285.018 56.2508 286.634 57.3974C288.25 58.5439 289.448 59.8729 290.23 61.3843C291.012 62.8697 291.403 64.6547 291.403 66.7394Z" fill="#004B6B"/>
<path d="M310.556 79.0522H301.37V35.8207H310.556V79.0522ZM300.823 24.3678C300.823 22.7261 301.266 21.4622 302.152 20.5763C303.064 19.6903 304.354 19.2473 306.022 19.2473C307.637 19.2473 308.888 19.6903 309.774 20.5763C310.686 21.4622 311.142 22.7261 311.142 24.3678C311.142 25.9313 310.686 27.1691 309.774 28.0812C308.888 28.9672 307.637 29.4102 306.022 29.4102C304.354 29.4102 303.064 28.9672 302.152 28.0812C301.266 27.1691 300.823 25.9313 300.823 24.3678Z" fill="#004B6B"/>
<path d="M361.761 79.0522H352.537V52.4722C352.537 49.1367 351.859 46.6481 350.504 45.0064C349.175 43.3647 347.051 42.5438 344.133 42.5438C340.25 42.5438 337.409 43.6904 335.611 45.9836C333.813 48.2768 332.914 52.1204 332.914 57.5146V79.0522H323.729V35.8207H330.921L332.211 41.4884H332.68C333.983 39.4298 335.833 37.8402 338.23 36.7197C340.628 35.5992 343.286 35.0389 346.204 35.0389C356.576 35.0389 361.761 40.3158 361.761 50.8696V79.0522Z" fill="#004B6B"/>
<path d="M401.592 79.0522L399.755 73.0326H399.442C397.358 75.6646 395.26 77.4626 393.149 78.4268C391.038 79.3649 388.328 79.834 385.019 79.834C380.771 79.834 377.449 78.6874 375.051 76.3942C372.68 74.101 371.494 70.8567 371.494 66.6613C371.494 62.2052 373.149 58.8436 376.459 56.5765C379.768 54.3094 384.81 53.0716 391.586 52.8631L399.052 52.6286V50.3224C399.052 47.5601 398.4 45.5015 397.097 44.1464C395.82 42.7653 393.827 42.0748 391.117 42.0748C388.902 42.0748 386.778 42.4005 384.745 43.052C382.713 43.7034 380.758 44.4722 378.882 45.3582L375.911 38.7914C378.257 37.5666 380.823 36.6415 383.612 36.0161C386.4 35.3646 389.032 35.0389 391.508 35.0389C397.006 35.0389 401.149 36.2376 403.938 38.635C406.752 41.0324 408.159 44.7979 408.159 49.9315V79.0522H401.592ZM387.911 72.7981C391.247 72.7981 393.918 71.873 395.925 70.0228C397.957 68.1466 398.973 65.5277 398.973 62.1661V58.4136L393.423 58.6482C389.097 58.8045 385.944 59.5342 383.964 60.8371C382.009 62.114 381.032 64.0814 381.032 66.7394C381.032 68.6678 381.605 70.1662 382.752 71.2346C383.898 72.2769 385.618 72.7981 387.911 72.7981Z" fill="#004B6B"/>
<path d="M442.909 35.0389C444.759 35.0389 446.283 35.1692 447.482 35.4298L446.583 43.9901C445.28 43.6774 443.925 43.521 442.518 43.521C438.843 43.521 435.86 44.7197 433.566 47.1171C431.299 49.5146 430.166 52.6286 430.166 56.4592V79.0522H420.98V35.8207H428.172L429.384 43.4429H429.853C431.286 40.863 433.15 38.8174 435.443 37.306C437.762 35.7946 440.251 35.0389 442.909 35.0389Z" fill="#004B6B"/>
<path fill-rule="evenodd" clip-rule="evenodd" d="M13.4055 20.6136C8.85764 10.8283 17.7023 12.3541 17.2521 0C23.1398 7.43002 26.3624 11.8029 22.282 20.6136H13.4055Z" fill="#FFAB40"/>
<path opacity="0.3" fill-rule="evenodd" clip-rule="evenodd" d="M17.8721 1.89404L17.9383 1.97738C20.3713 5.04313 22.1772 7.69202 22.9428 10.5071C23.7091 13.3245 23.4325 16.304 21.711 20.029L21.7008 20.0512H13.7984L13.7887 20.0273C12.9231 17.8875 12.7329 16.3092 12.9409 14.9894C13.1488 13.6699 13.754 12.6133 14.4696 11.5174C14.5941 11.3266 14.7221 11.1345 14.852 10.9396C16.2136 8.89595 17.7866 6.53501 17.8702 2.00042L17.8721 1.89404ZM17.9443 2.10794C17.8379 6.5961 16.2682 8.9519 14.9157 10.9817C14.7858 11.1766 14.6579 11.3686 14.5335 11.5591C13.819 12.6535 13.2216 13.6987 13.0163 15.0013C12.8119 16.2985 12.9959 17.8556 13.8499 19.9748H21.6519C23.3584 16.2727 23.6282 13.318 22.8691 10.5271C22.1148 7.75376 20.3436 5.13791 17.9443 2.10794Z" fill="#FAFAFA"/>
<path fill-rule="evenodd" clip-rule="evenodd" d="M16.5152 20.6134C13.5762 15.2572 22.2209 13.9669 21.9299 7.20459C25.7349 11.2716 24.8885 15.7907 22.2516 20.6134H16.5152Z" fill="#FFD180"/>
<path opacity="0.607" fill-rule="evenodd" clip-rule="evenodd" d="M19.7065 8.57715H22.1081V8.63387H19.7065V8.57715Z" fill="white"/>
</svg>
